0
SECTION
2
HEADER
9
$INSUNITS
70
4
9
$ACADVER
1
AC1014
9
$HANDSEED
5
FFFF
0
ENDSEC
0
SECTION
2
TABLES
0
TABLE
2
VPORT
5
8
100
AcDbSymbolTable
0
ENDTAB
0
TABLE
2
LTYPE
5
5
100
AcDbSymbolTable
0
LTYPE
5
14
100
AcDbSymbolTableRecord
100
AcDbLinetypeTableRecord
2
BYBLOCK
70
0
0
LTYPE
5
15
100
AcDbSymbolTableRecord
100
AcDbLinetypeTableRecord
2
BYLAYER
70
0
0
ENDTAB
0
TABLE
2
LAYER
5
2
100
AcDbSymbolTable
70
2
0
LAYER
5
50
100
AcDbSymbolTableRecord
100
AcDbLayerTableRecord
2
0
70
0
6
CONTINUOUS
0
ENDTAB
0
TABLE
2
STYLE
5
3
100
AcDbSymbolTable
70
1
0
STYLE
5
11
100
AcDbSymbolTableRecord
100
AcDbTextStyleTableRecord
2
STANDARD
70
0
0
ENDTAB
0
TABLE
2
VIEW
5
6
100
AcDbSymbolTable
70
0
0
ENDTAB
0
TABLE
2
UCS
5
7
100
AcDbSymbolTable
70
0
0
ENDTAB
0
TABLE
2
APPID
5
9
100
AcDbSymbolTable
70
2
0
APPID
5
12
100
AcDbSymbolTableRecord
100
AcDbRegAppTableRecord
2
ACAD
70
0
0
ENDTAB
0
TABLE
2
DIMSTYLE
5
A
100
AcDbSymbolTable
70
1
0
ENDTAB
0
TABLE
2
BLOCK_RECORD
5
1
100
AcDbSymbolTable
70
1
0
BLOCK_RECORD
5
1F
100
AcDbSymbolTableRecord
100
AcDbBlockTableRecord
2
*MODEL_SPACE
0
BLOCK_RECORD
5
1B
100
AcDbSymbolTableRecord
100
AcDbBlockTableRecord
2
*PAPER_SPACE
0
ENDTAB
0
ENDSEC
0
SECTION
2
BLOCKS
0
BLOCK
5
20
100
AcDbEntity
100
AcDbBlockBegin
2
*MODEL_SPACE
0
ENDBLK
5
21
100
AcDbEntity
100
AcDbBlockEnd
0
BLOCK
5
1C
100
AcDbEntity
100
AcDbBlockBegin
2
*PAPER_SPACE
0
ENDBLK
5
1D
100
AcDbEntity
100
AcDbBlockEnd
0
ENDSEC
0
SECTION
2
ENTITIES
0
CIRCLE
5
100
100
AcDbEntity
8
0
100
AcDbCircle
10
-1.2528810567665527
20
80
30
0
40
1.4999999999999989
0
CIRCLE
5
101
100
AcDbEntity
8
0
100
AcDbCircle
10
6.7471189432334473
20
80
30
0
40
1.4999999999999991
0
CIRCLE
5
102
100
AcDbEntity
8
0
100
AcDbCircle
10
14.747118943233449
20
80
30
0
40
1.4999999999999991
0
CIRCLE
5
103
100
AcDbEntity
8
0
100
AcDbCircle
10
-1.2528810567665527
20
71.25
30
0
40
1.4999999999999989
0
CIRCLE
5
104
100
AcDbEntity
8
0
100
AcDbCircle
10
14.747118943233449
20
62.5
30
0
40
1.4999999999999991
0
CIRCLE
5
105
100
AcDbEntity
8
0
100
AcDbCircle
10
-1.2528810567665527
20
62.5
30
0
40
1.4999999999999989
0
CIRCLE
5
106
100
AcDbEntity
8
0
100
AcDbCircle
10
14.747118943233449
20
71.25
30
0
40
1.4999999999999991
0
CIRCLE
5
107
100
AcDbEntity
8
0
100
AcDbCircle
10
6.7471189432334473
20
71.25
30
0
40
1.4999999999999991
0
CIRCLE
5
108
100
AcDbEntity
8
0
100
AcDbCircle
10
6.7471189432334473
20
62.5
30
0
40
1.4999999999999991
0
LWPOLYLINE
5
109
100
AcDbEntity
8
0
100
AcDbPolyline
90
4
70
1
43
0.0
10
-2.4999999999999738
20
28.000000000000007
10
2.5000000000000249
20
28.000000000000007
42
0.99999999999999989
10
2.5000000000000258
20
32.000000000000007
10
-2.4999999999999725
20
32.000000000000007
42
0.99999999999999989
0
CIRCLE
5
110
100
AcDbEntity
8
0
100
AcDbCircle
10
-20.737500000000004
20
45
30
0
40
5.0000000000000009
0
CIRCLE
5
111
100
AcDbEntity
8
0
100
AcDbCircle
10
20.73750000000004
20
30
30
0
40
4.9999999999999991
0
CIRCLE
5
112
100
AcDbEntity
8
0
100
AcDbCircle
10
20.73750000000004
20
130
30
0
40
4.9999999999999991
0
CIRCLE
5
113
100
AcDbEntity
8
0
100
AcDbCircle
10
-20.737500000000004
20
115
30
0
40
5.0000000000000009
0
LWPOLYLINE
5
114
100
AcDbEntity
8
0
100
AcDbPolyline
90
40
70
1
43
0.0
10
-18.397754037844432
20
66.443375672974
10
-18.397754037844436
20
93.556624327026014
42
-0.26794919243112275
10
-17.147754037844422
20
95.721687836487092
10
-10.987500000000026
20
99.278312163512993
42
0.26794919243112125
10
-9.7375000000000149
20
101.4433756729741
10
-9.7374999999999439
20
127.50000000000007
42
0.99999999999999989
10
-14.737499999999944
20
127.5
10
-14.737500000000006
20
102.99999999999991
42
-0.41421356237309453
10
-17.237500000000018
20
100.49999999999994
10
-28.237500000000097
20
100.49999999999999
42
-0.41421356237309453
10
-30.737500000000075
20
103
10
-30.737500000000075
20
104.31572807176724
42
0.46442036401285519
10
-30.737500000000068
20
106.68427192823275
10
-30.737500000000022
20
137.50000000000003
42
-0.41421356237309503
10
-28.237500000000004
20
140.00000000000006
10
30.23750000000004
20
140
42
-0.41421356237309503
10
32.73750000000004
20
137.5
10
32.737500000000047
20
123.44337567297407
42
-0.26794919243112347
10
31.487500000000036
20
121.27831216351296
10
20.997118943233449
20
115.22168783648708
42
0.26794919243112053
10
19.747118943233449
20
113.05662432702597
10
19.747118943233449
20
46.943375672974035
42
0.26794919243112297
10
20.997118943233453
20
44.778312163512943
10
31.487500000000036
20
38.721687836487035
42
-0.2679491924311232
10
32.73750000000004
20
36.556624327025936
10
32.737500000000033
20
22.499999999999996
42
-0.41421356237309553
10
30.23750000000004
20
19.999999999999996
10
-28.237500000000004
20
19.99999999999995
42
-0.41421356237309348
10
-30.737500000000008
20
22.49999999999995
10
-30.737500000000061
20
53.315728071767261
42
0.46442036401285247
10
-30.737500000000072
20
55.684271928232761
10
-30.737500000000082
20
57.000000000000014
42
-0.41421356237309453
10
-28.23750000000009
20
59.500000000000014
10
-17.237500000000018
20
59.500000000000071
42
-0.41421356237309687
10
-14.737500000000004
20
57.000000000000071
10
-14.737499999999944
20
32.499999999999993
42
0.99999999999999989
10
-9.7375000000000043
20
32.5
10
-9.7375000000000114
20
58.556624327025908
42
0.26794919243112431
10
-10.987500000000026
20
60.721687836487007
10
-17.147754037844425
20
64.278312163512908
42
-0.26794919243112331
0
LWPOLYLINE
5
115
100
AcDbEntity
8
0
100
AcDbPolyline
90
4
70
1
43
0.0
10
2.5000000000000249
20
132
10
-2.4999999999999738
20
132
42
0.99999999999999989
10
-2.4999999999999734
20
127.99999999999999
10
2.5000000000000289
20
128
42
0.99999999999999989
0
CIRCLE
5
116
100
AcDbEntity
8
0
100
AcDbCircle
10
6.7471189432334473
20
97.5
30
0
40
1.4999999999999991
0
CIRCLE
5
117
100
AcDbEntity
8
0
100
AcDbCircle
10
6.7471189432334473
20
88.75
30
0
40
1.4999999999999991
0
CIRCLE
5
118
100
AcDbEntity
8
0
100
AcDbCircle
10
14.747118943233449
20
88.75
30
0
40
1.4999999999999991
0
CIRCLE
5
119
100
AcDbEntity
8
0
100
AcDbCircle
10
-1.2528810567665527
20
97.5
30
0
40
1.4999999999999989
0
CIRCLE
5
120
100
AcDbEntity
8
0
100
AcDbCircle
10
14.747118943233449
20
97.5
30
0
40
1.4999999999999991
0
CIRCLE
5
121
100
AcDbEntity
8
0
100
AcDbCircle
10
-1.2528810567665527
20
88.75
30
0
40
1.4999999999999989
0
CIRCLE
5
122
100
AcDbEntity
8
0
100
AcDbCircle
10
-20.737500000000004
20
115
30
0
40
2.6350000000000007
0
CIRCLE
5
123
100
AcDbEntity
8
0
100
AcDbCircle
10
-20.737500000000004
20
115
30
0
40
5.0000000000000009
0
CIRCLE
5
124
100
AcDbEntity
8
0
100
AcDbCircle
10
20.73750000000004
20
130
30
0
40
2.6350000000000007
0
CIRCLE
5
125
100
AcDbEntity
8
0
100
AcDbCircle
10
-20.737500000000004
20
45
30
0
40
5.0000000000000009
0
CIRCLE
5
126
100
AcDbEntity
8
0
100
AcDbCircle
10
-20.737500000000004
20
45
30
0
40
2.6350000000000007
0
CIRCLE
5
127
100
AcDbEntity
8
0
100
AcDbCircle
10
-20.737500000000004
20
45
30
0
40
5.0000000000000009
0
CIRCLE
5
128
100
AcDbEntity
8
0
100
AcDbCircle
10
20.73750000000004
20
30
30
0
40
2.6350000000000007
0
CIRCLE
5
129
100
AcDbEntity
8
0
100
AcDbCircle
10
20.73750000000004
20
30
30
0
40
4.9999999999999991
0
CIRCLE
5
130
100
AcDbEntity
8
0
100
AcDbCircle
10
20.73750000000004
20
130
30
0
40
2.6350000000000007
0
CIRCLE
5
131
100
AcDbEntity
8
0
100
AcDbCircle
10
20.73750000000004
20
130
30
0
40
4.9999999999999991
0
ENDSEC
0
SECTION
2
OBJECTS
0
DICTIONARY
5
C
100
AcDbDictionary
3
ACAD_GROUP
350
D
3
ACAD_MLINESTYLE
350
17
0
DICTIONARY
5
D
100
AcDbDictionary
0
DICTIONARY
5
1A
330
C
100
AcDbDictionary
0
DICTIONARY
5
17
100
AcDbDictionary
0
ENDSEC
0
EOF
